<?xml version="1.0" standalone="no"?>
<!DOCTYPE svg PUBLIC "-//W3C//DTD SVG 20010904//EN"
 "http://www.w3.org/TR/2001/REC-SVG-20010904/DTD/svg10.dtd">
<svg version="1.0" xmlns="http://www.w3.org/2000/svg"
 width="300.000000pt" height="261.000000pt" viewBox="0 0 300.000000 261.000000"
 preserveAspectRatio="xMidYMid meet">
<metadata>
Created by potrace 1.10, written by Peter Selinger 2001-2011
</metadata>
<g transform="translate(0.000000,261.000000) scale(0.100000,-0.100000)"
fill="#000000" stroke="none">
<path d="M1320 2008 c-14 -5 -50 -9 -80 -9 -124 2 -344 -135 -457 -284 -65
-86 -122 -225 -123 -300 0 -27 -1 -72 -2 -100 -2 -69 4 -152 11 -162 3 -4 40
-5 81 -2 l75 5 -77 2 c-98 2 -105 22 -8 22 40 0 70 4 70 10 0 6 -30 10 -70 10
-40 0 -70 4 -70 10 0 6 30 10 70 10 39 0 70 3 70 8 0 4 -31 6 -70 4 -46 -2
-70 0 -70 7 0 7 26 11 70 11 40 0 70 4 70 10 0 6 -30 10 -70 10 -40 0 -70 4
-70 10 0 6 30 10 70 10 46 0 70 4 70 11 0 8 -22 10 -70 7 -38 -3 -70 -1 -70 3
0 5 31 9 69 9 39 0 73 5 76 10 4 6 -22 10 -69 10 -44 0 -76 4 -76 10 0 6 32
10 75 10 48 0 75 4 75 11 0 8 -23 10 -70 7 -38 -2 -70 0 -70 4 0 4 32 8 70 8
57 0 70 3 70 16 0 12 -12 15 -62 14 -35 -1 -66 -1 -70 -1 -12 2 40 141 78 210
48 85 178 216 266 265 57 31 196 86 219 86 5 0 8 -26 7 -57 -1 -33 2 -57 7
-55 6 1 8 27 7 57 -3 35 0 55 7 55 7 0 11 -23 11 -61 0 -37 4 -58 10 -54 6 3
10 33 10 66 0 32 4 59 9 59 5 0 7 -27 4 -60 -4 -41 -2 -60 6 -60 7 0 11 23 11
65 0 86 18 84 23 -2 l3 -68 2 68 c2 83 22 90 22 7 0 -38 4 -60 11 -60 8 0 10
20 7 60 -2 33 -1 60 4 60 4 0 8 -27 8 -60 0 -33 4 -60 10 -60 6 0 10 27 10 60
0 33 4 60 9 60 5 0 7 -26 4 -59 -4 -38 -2 -61 6 -65 8 -5 11 12 11 58 0 87 19
86 22 -1 l2 -68 3 60 c6 86 23 95 23 12 0 -38 4 -67 10 -67 6 0 10 27 10 60 0
33 4 60 9 60 5 0 6 -29 3 -65 -3 -45 -1 -65 7 -65 7 0 11 22 11 60 0 37 4 60
11 60 7 0 10 -20 7 -57 -2 -37 1 -58 9 -60 8 -3 10 11 6 50 -3 33 -1 57 5 61
15 9 136 -37 217 -81 70 -39 204 -156 209 -183 6 -31 18 -50 29 -43 5 3 7 1 4
-4 -4 -6 7 -35 23 -66 28 -50 70 -159 70 -178 0 -5 -24 -8 -52 -8 -73 1 -78 0
-78 -11 0 -6 30 -10 70 -10 40 0 70 -4 70 -10 0 -6 -26 -9 -65 -7 -42 2 -65 0
-65 -7 0 -7 23 -10 65 -8 42 3 65 0 65 -7 0 -7 -25 -11 -65 -11 -41 0 -65 -4
-65 -11 0 -7 21 -10 63 -8 37 3 62 0 62 -6 0 -6 -24 -9 -57 -7 -32 2 -59 -2
-63 -8 -4 -6 18 -10 64 -10 41 0 71 -4 71 -10 0 -6 -28 -10 -65 -10 -37 0 -65
-4 -65 -10 0 -6 28 -10 65 -10 41 0 65 -4 65 -11 0 -8 -21 -10 -65 -7 -36 2
-65 0 -65 -4 0 -4 27 -8 59 -8 33 0 63 -5 66 -10 4 -6 11 -8 16 -4 5 3 7 9 4
14 -3 5 -7 50 -10 100 -9 202 -104 410 -237 525 -60 52 -196 128 -261 146 -70
19 -332 31 -367 17z"/>
<path d="M1153 1886 c-10 -16 -86 -56 -108 -56 -10 0 -15 -7 -13 -17 4 -24 28
-28 34 -7 6 21 79 58 107 55 11 -2 17 5 17 18 0 24 -25 28 -37 7z"/>
<path d="M1684 1885 c-9 -22 5 -38 21 -25 9 8 15 8 20 0 10 -17 65 -42 65 -30
0 6 -16 18 -35 26 -20 8 -38 21 -42 29 -7 19 -22 19 -29 0z"/>
<path d="M1354 1849 c-216 -20 -406 -162 -489 -368 -37 -89 -47 -200 -30 -315
14 -93 59 -215 85 -231 7 -4 6 4 -4 23 -29 56 -17 48 24 -15 131 -200 392
-303 627 -248 202 48 378 217 434 420 8 29 14 92 13 150 -2 160 -48 270 -167
394 -65 68 -63 68 18 7 l50 -39 -61 60 c-130 127 -293 180 -500 162z m239 -65
c91 -23 177 -70 230 -126 47 -51 59 -80 15 -38 -23 22 -113 84 -153 105 -55
30 -185 55 -268 54 -59 -2 -58 -2 25 -10 111 -9 178 -29 253 -74 146 -88 233
-216 256 -380 35 -247 -155 -508 -411 -565 -217 -47 -470 73 -567 270 -62 126
-75 218 -48 343 37 177 164 316 349 380 49 17 66 26 42 22 -113 -18 -253 -113
-322 -217 -69 -105 -86 -156 -92 -274 -4 -86 -1 -113 19 -180 12 -43 31 -93
40 -111 14 -24 15 -31 4 -27 -19 8 -38 40 -64 108 -17 47 -22 81 -23 175 -1
157 21 231 102 340 56 76 168 171 202 171 8 0 18 4 24 10 36 36 280 52 387 24z"/>
<path d="M1323 1735 c-85 -18 -173 -67 -242 -134 -235 -227 -165 -639 133
-785 107 -52 233 -69 335 -45 129 29 262 138 332 271 l44 83 0 126 c0 125 0
125 -38 201 -73 148 -227 263 -387 288 -81 12 -99 12 -177 -5z m242 -21 l40
-13 -40 5 c-36 4 -34 3 20 -16 32 -12 82 -37 110 -55 49 -33 155 -151 155
-173 0 -6 -9 -14 -20 -17 -11 -4 -37 -26 -57 -51 l-37 -44 -46 45 c-55 54 -99
61 -126 20 -16 -25 -16 -25 -43 -6 -14 10 -36 22 -49 25 -21 7 -21 9 -7 29 20
28 19 47 -5 75 -14 17 -25 22 -40 17 -41 -13 -47 -64 -11 -92 13 -9 9 -12 -24
-18 -52 -10 -90 -29 -110 -57 l-16 -23 -17 21 c-35 42 -69 56 -144 59 -91 4
-85 2 -92 21 -12 31 81 141 163 193 112 72 274 95 396 55z m-105 -208 c0 -8
-7 -20 -16 -27 -14 -11 -18 -10 -30 5 -20 27 -1 60 26 46 11 -6 20 -17 20 -24z
m415 -240 l0 -154 -31 -4 -31 -4 4 106 4 105 -40 -62 c-22 -35 -43 -63 -46
-63 -2 0 -22 26 -42 57 l-38 56 -3 -96 -3 -97 -29 0 c-17 0 -30 -4 -30 -8 0
-16 24 -32 47 -32 28 0 43 32 43 92 l0 40 36 -21 c21 -13 44 -19 55 -16 16 5
19 1 19 -27 0 -29 6 -36 38 -53 20 -10 39 -20 40 -21 2 -2 -10 -24 -28 -49
-84 -122 -201 -202 -330 -225 -185 -33 -388 64 -483 232 l-27 47 32 3 c32 3
33 4 36 56 2 28 7 52 11 52 5 0 20 -18 35 -40 40 -60 146 -97 146 -50 0 11 4
20 8 20 5 0 17 -9 27 -20 10 -11 31 -20 47 -20 25 0 28 3 29 35 3 64 7 70 44
61 18 -5 25 -13 25 -31 0 -30 36 -56 85 -60 24 -2 35 1 35 10 0 7 6 15 13 17
9 4 13 46 15 156 l4 152 24 0 c18 0 35 -15 67 -59 23 -33 45 -60 48 -60 3 -1
26 26 52 58 26 34 56 61 69 64 13 2 23 5 23 6 0 0 0 -68 0 -153z m-674 115
c46 -46 34 -129 -22 -150 -18 -6 -17 -11 21 -64 22 -32 40 -59 40 -60 0 -1
-15 -2 -32 -2 -28 0 -39 8 -76 58 -30 40 -48 57 -58 53 -9 -3 -20 -6 -25 -6
-5 0 -9 -22 -9 -50 0 -49 -1 -50 -30 -50 l-30 0 0 83 0 83 86 1 c47 1 91 6 96
11 5 5 8 20 6 33 -3 22 -8 24 -65 27 -58 3 -63 1 -63 -18 0 -20 -15 -25 -44
-14 -11 4 -16 19 -16 50 l0 44 96 0 c92 0 97 -1 125 -29z m300 0 c29 -29 29
-30 29 -149 l0 -120 -31 -4 -31 -5 4 51 3 51 -69 0 -68 0 5 -46 c6 -46 5 -47
-24 -51 l-29 -5 0 128 0 127 31 26 c25 22 41 26 91 26 53 0 63 -3 89 -29z
m-243 -183 c-3 -34 -16 -40 -32 -15 -7 10 -5 21 3 31 21 25 33 19 29 -16z"/>
<path d="M1309 1706 c-25 -7 -70 -26 -99 -42 -57 -31 -150 -109 -150 -126 0
-5 26 13 58 42 106 94 206 135 311 126 29 -2 63 -1 75 4 34 14 -143 10 -195
-4z"/>
<path d="M1395 1040 c-23 -25 -14 -62 20 -80 22 -12 27 -11 45 5 25 23 25 50
0 75 -25 25 -42 25 -65 0z m54 -17 c10 -19 -2 -53 -19 -53 -18 0 -32 40 -19
56 15 19 26 18 38 -3z"/>
<path d="M1351 1331 c-6 -11 -11 -32 -11 -46 0 -21 4 -26 16 -21 9 3 38 6 65
6 l50 0 -3 38 -3 37 -52 3 c-43 3 -54 0 -62 -17z"/>
<path d="M1802 1813 c4 -21 33 -25 33 -3 0 8 -8 16 -18 18 -14 3 -18 -1 -15
-15z"/>
<path d="M966 1756 c-27 -23 -47 -48 -45 -54 2 -7 25 8 53 37 28 28 48 53 45
55 -2 3 -26 -14 -53 -38z"/>
<path d="M1885 1746 c28 -24 52 -42 55 -39 7 7 -80 83 -94 83 -6 0 12 -20 39
-44z"/>
<path d="M882 1688 c-8 -8 -9 -15 0 -25 14 -17 39 2 31 23 -6 17 -15 18 -31 2z"/>
<path d="M1945 1690 c-10 -16 16 -43 28 -31 11 11 2 41 -12 41 -5 0 -13 -5
-16 -10z"/>
<path d="M2000 1613 c11 -24 25 -43 30 -43 18 0 10 19 -21 52 l-30 33 21 -42z"/>
<path d="M847 1612 c-27 -28 -35 -52 -17 -52 5 0 19 18 30 40 11 22 19 40 17
40 -2 0 -15 -13 -30 -28z"/>
<path d="M787 1514 c-14 -14 -7 -35 11 -32 9 2 17 10 17 17 0 16 -18 25 -28
15z"/>
<path d="M2008 1468 c10 -28 18 -45 20 -37 3 14 -24 89 -32 89 -2 0 3 -23 12
-52z"/>
<path d="M2050 1191 c0 -9 128 -20 136 -12 2 2 1 8 -2 12 -7 12 -134 11 -134
0z"/>
<path d="M2040 1158 c0 -4 27 -8 60 -8 33 0 60 -4 60 -10 0 -6 -28 -10 -64
-10 l-64 0 -6 -36 c-12 -62 -84 -186 -144 -248 -67 -68 -152 -127 -222 -152
-27 -10 -50 -22 -50 -26 0 -4 -7 -8 -16 -8 -12 0 -15 -6 -11 -22 3 -13 2 -43
-3 -68 -7 -44 -8 -43 -9 23 0 39 -5 67 -11 67 -7 0 -10 -27 -9 -70 2 -67 3
-70 26 -70 59 0 268 86 280 115 3 8 8 13 12 10 13 -7 120 89 163 147 76 100
177 353 144 363 -25 8 -136 11 -136 3z m120 -51 c0 -2 -11 -37 -25 -77 -51
-151 -147 -278 -276 -366 -38 -26 -66 -52 -62 -57 3 -6 1 -7 -4 -4 -6 4 -39
-4 -74 -17 -37 -14 -57 -26 -48 -29 8 -4 1 -3 -15 0 -22 4 -27 3 -21 -7 5 -8
2 -11 -11 -8 -11 2 -19 11 -18 21 0 9 1 35 2 57 2 31 6 40 20 40 9 0 26 7 36
15 11 8 27 15 35 15 51 0 238 167 284 255 34 65 67 148 61 157 -3 4 22 8 55 8
34 0 61 -1 61 -3z"/>
<path d="M2047 1025 c-7 -16 8 -29 23 -20 15 9 12 35 -4 35 -8 0 -16 -7 -19
-15z"/>
<path d="M2017 939 c-16 -28 -26 -53 -23 -56 5 -5 48 60 59 90 13 36 -9 15
-36 -34z"/>
<path d="M1951 848 c-11 -29 -92 -105 -126 -118 -14 -5 -25 -14 -25 -19 0 -15
-87 -60 -98 -49 -5 5 -14 3 -22 -7 -19 -23 8 -40 30 -20 8 7 38 24 66 37 29
14 81 53 119 90 37 37 74 69 82 72 16 7 13 28 -5 34 -7 2 -16 -7 -21 -20z"/>
<path d="M675 1121 c3 -5 1 -12 -3 -15 -32 -20 60 -240 122 -293 17 -14 65
-57 106 -95 41 -39 104 -87 140 -108 66 -39 193 -84 265 -94 l40 -5 -3 74 c-2
41 -7 75 -12 75 -4 0 -6 -27 -4 -60 2 -32 -1 -62 -6 -65 -6 -4 -10 20 -10 63
l0 69 -34 6 c-51 8 -163 65 -234 120 -66 51 -71 35 -7 -22 37 -32 186 -111
211 -111 11 0 14 -16 14 -64 0 -60 -1 -64 -21 -59 -16 5 -18 8 -7 15 9 7 4 8
-15 5 -15 -2 -25 -2 -22 1 3 3 -23 17 -58 32 -82 34 -158 85 -233 153 -34 31
-64 54 -66 51 -7 -7 -71 81 -91 126 -25 52 -57 151 -57 172 0 16 9 18 71 18
44 0 68 4 64 10 -3 6 -40 10 -81 10 -44 0 -73 -4 -69 -9z m614 -528 c-2 -70
-6 -63 -11 20 -2 26 0 47 4 47 5 0 7 -30 7 -67z"/>
<path d="M784 1036 c-9 -24 12 -44 28 -28 9 10 8 16 -5 29 -15 15 -17 15 -23
-1z"/>
<path d="M810 985 c0 -12 40 -84 50 -90 15 -9 13 -2 -16 49 -24 42 -34 55 -34
41z"/>
<path d="M881 856 c-8 -10 -8 -16 3 -25 10 -9 16 -8 26 3 12 15 6 36 -9 36 -5
0 -14 -6 -20 -14z"/>
<path d="M920 812 c0 -8 60 -60 90 -77 22 -12 -31 44 -62 67 -16 10 -28 15
-28 10z"/>
<path d="M1032 713 c2 -10 10 -18 18 -18 22 0 18 29 -3 33 -14 3 -18 -1 -15
-15z"/>
<path d="M1094 677 c10 -7 34 -22 53 -34 29 -20 34 -21 40 -7 7 19 -11 41 -21
25 -4 -7 -18 -3 -39 9 -34 21 -65 27 -33 7z"/>
<path d="M1521 586 c1 -42 6 -76 10 -76 13 0 11 138 -1 145 -7 5 -10 -19 -9
-69z"/>
<path d="M1355 583 c0 -48 4 -68 14 -71 10 -3 12 0 8 12 -4 10 -7 42 -7 72 0
30 -3 54 -7 54 -5 0 -8 -30 -8 -67z"/>
<path d="M1390 575 c0 -53 4 -75 13 -75 9 0 11 20 9 75 -5 97 -22 98 -22 0z"/>
<path d="M1422 584 c1 -36 6 -71 10 -77 5 -9 8 -8 8 3 0 13 1 13 10 0 17 -27
26 3 22 73 -2 37 -8 67 -12 67 -5 0 -11 -28 -13 -62 l-3 -63 -2 63 c-1 36 -6
62 -13 62 -6 0 -9 -24 -7 -66z"/>
<path d="M1488 574 c2 -42 7 -72 12 -68 9 10 1 144 -9 144 -3 0 -5 -34 -3 -76z"/>
<path d="M1130 320 c-20 -12 13 -19 140 -26 204 -12 527 -3 560 17 13 7 13 9
0 10 -66 6 -690 5 -700 -1z"/>
</g>
</svg>
